<svg viewBox="0 0 64 64" fill="none" xmlns="http://www.w3.org/2000/svg">
<path d="M43.8101 3.3055L46.1786 28.204L32.9 28.0652L29.4043 10.0644L19.9046 20.9802L28.4926 15.5652L31.0731 29.9282L32.9067 30.3513L34.4368 63.206L0.4425 54.8685L0.122046 17.3638L26.5292 0.854688L43.8101 3.3055Z" fill="white"/>
<path d="M47.0113 8.05931L59.254 8.37638L59.8047 21.0062L48.3315 20.6056L47.0113 8.05931Z" fill="white"/>
<path d="M48.4432 30.5691L48.2367 22.7563L62.9585 23.0011L63.4358 35.482L36.2309 34.4394L36.0684 30.1685L48.4432 30.5691Z" fill="white"/>
<path d="M36.3731 36.7683L62.0062 37.6191L62.2792 49.2639L36.9745 48.3533L36.3731 36.7683Z" fill="white"/>
<path d="M36.7082 50.935L59.5644 51.4044L59.8375 63.0502L37.3096 62.5199L36.7082 50.935Z" fill="white"/>
</svg>
