<svg  viewBox="0 0 84 62" fill="none" xmlns="http://www.w3.org/2000/svg">
<path d="M42.6271 7.48024L35.7227 33.8919L27.0715 31.8236L30.0797 15.0866L22.7453 19.4116L28.0114 18.1478L25.0032 32.7635L32.6129 34.6682L28.0114 59.0928L13.4916 57.8031L0.313398 52.053L0.3134 9.38944L31.3435 0.713426L42.6271 7.48024Z" fill="white"/>
<path d="M45.7133 7.16317L81.2737 3.50725L83.5305 14.7808L48.269 20.6167L83.5305 26.623L81.2737 37.8965L38.6158 32.3257L45.7133 7.16317Z" fill="white"/>
<path d="M37.8621 35.8903L34.7952 35.4841L33.3712 44.801L54.3408 47.9977L55.6937 36.8133L38.1374 34.455L37.8621 35.8903Z" fill="white"/>
<path d="M53.1119 50.3503L53.0555 50.7745L51.7015 61.9589L30.7319 58.7622L32.3782 47.9976" fill="white"/>
</svg>
